PathFileType	4	(X/Y/Z)	Patient4_TMGait_0pt5_01_right_26.trc.trc
DataRate	CameraRate	NumFrames	NumMarkers	Units	OrigDataRate	OrigDataStartFrame	OrigNumFrames
77.348066298342	77.348066298342	4	33	mm	77.348066298342	36	       141
Frame#	Time	L.ASIS			Sacral			L.Shoulder			Chest			R.Shoulder			Neck			R.ASIS			R.Thigh.Superior			R.Thigh.Lateral			R.Thigh.Inferior			R.Patella			L.Thigh.Superior			L.Thigh.Lateral			L.Thigh.Inferior			L.Patella			L.Shank.Superior			L.Shank.Lateral			L.Shank.Inferior			R.Shank.Superior			R.Shank.Lateral			R.Shank.Inferior			R.Heel			R.Midfoot.Superior			R.Midfoot.Lateral			R.Toe			L.Heel			L.Midfoot.Lateral			L.Midfoot.Superior			L.Toe			L.Elbow			L.Wrist			R.Elbow			R.Wrist			
		X1	Y1	Z1	X2	Y2	Z2	X3	Y3	Z3	X4	Y4	Z4	X5	Y5	Z5	X6	Y6	Z6	X7	Y7	Z7	X8	Y8	Z8	X9	Y9	Z9	X10	Y10	Z10	X11	Y11	Z11	X12	Y12	Z12	X13	Y13	Z13	X14	Y14	Z14	X15	Y15	Z15	X16	Y16	Z16	X17	Y17	Z17	X18	Y18	Z18	X19	Y19	Z19	X20	Y20	Z20	X21	Y21	Z21	X22	Y22	Z22	X23	Y23	Z23	X24	Y24	Z24	X25	Y25	Z25	X26	Y26	Z26	X27	Y27	Z27	X28	Y28	Z28	X29	Y29	Z29	X30	Y30	Z30	X31	Y31	Z31	X32	Y32	Z32	X33	Y33	Z33	

36	34.602500000000	841.716033396269	959.308860956983	340.947835564584	624.385085828384	999.807325906043	494.021350491901	794.796849267753	1432.453537198303	316.193341352424	890.376948181817	1366.844536500049	482.883249269699	793.776196329711	1439.176782693351	651.716006634507	785.161371785086	1493.695093463487	467.385881341803	852.695544819447	941.233688600624	614.816858046689	911.606509165041	749.104919377520	583.618459936644	840.013119057735	634.905974201848	643.728247792677	921.067365389091	588.532147127980	562.680334159092	928.795785463171	500.219969288314	568.602813624321	877.083796382714	738.023388910660	367.227453294755	786.129280490812	624.497362859430	306.112834237740	868.528285070138	539.912279178441	366.241446014736	860.609073929764	455.870733938483	367.073286653488	798.056804043717	395.383604182855	362.412815448354	664.269823587717	336.240481253594	311.518325214140	661.616963909727	210.570720655959	375.475928186702	907.578294607635	409.901780932681	577.682405701472	843.739120299762	302.285027394324	640.048576513846	892.877828116187	210.310448096067	578.815989109330	767.694053248455	41.898075071472	551.391734470201	938.354919103710	99.625087553643	582.851645929346	852.970480437033	36.232853771035	624.387900017343	1059.375212701468	51.508542917699	607.556353376088	479.410607519032	117.277834050903	412.759840455495	546.090852081474	82.138108825406	335.532307208611	645.354996304267	112.727509357021	357.824060225534	744.407788407383	33.727607806108	336.560640926426	805.631146574133	1082.629206590195	185.729362680194	1022.016986560846	937.197969636311	201.013141320045	716.556873380675	1106.458412646040	777.512401875346	827.775007944644	870.946159864076	794.343388493787	
37	34.615428571429	839.968591372717	959.581152041978	342.284243902118	623.664230021561	1000.078578363402	497.223232442373	792.211643078998	1433.410750907275	318.906318967673	889.614791583281	1367.187981148488	484.325749316778	794.831168814483	1438.817735731893	654.395479091865	784.171535260043	1494.045845559611	470.494248567985	852.926087517550	941.999492230211	616.059461606529	909.995017207020	748.252197370879	585.688935986042	837.238594434851	634.837517960216	645.344350306454	917.538881135955	587.897944867676	563.876611651291	924.357066322671	499.712085444835	569.251281965301	881.121809745456	740.622447746154	369.257621228298	795.046777819591	624.611344868187	307.380470950039	880.417404381750	542.062050153704	367.420984530495	873.832997932296	456.673480667261	367.605361386423	809.193096495870	396.240091437546	363.023547123843	673.296385843760	342.203038568841	311.970391378037	666.075808889687	216.464734552978	375.226306892195	902.868081205767	409.473939161083	578.336572439523	838.772576840833	301.956557961732	640.507231142833	887.190268053531	209.966457113299	578.985763599343	761.209953869104	41.900567387197	551.456173430368	931.903336969884	99.448466239719	582.863001044202	846.458942740720	36.173710827531	624.481328050364	1052.907935774206	51.300571442004	607.612194113365	480.137097504017	132.666295405733	412.111072948487	544.712520989490	93.209688795316	335.126093986997	645.638835578751	117.778051421241	357.339738342831	738.918353480681	32.898782418066	336.708457274395	798.473017692269	1083.443885875259	188.165247485781	1011.301182925065	932.264928103387	201.326733218824	723.870448043083	1105.167576850606	782.141256290713	842.452289775418	873.241225142364	797.893426139320	
38	34.628357142857	838.053890813855	959.665620443790	343.632372305715	622.794455759913	1000.244719433275	500.320232717714	789.526694276783	1434.115116843339	321.416850485801	888.784108124866	1367.374624402109	485.577329385627	795.838869187078	1438.379697072502	656.860700933790	783.160906847225	1494.246912684507	473.346937267308	852.968525203868	942.597190217856	617.278072700040	908.282806404644	747.403069007769	587.547634878901	834.605250615617	634.711661605746	646.899556275912	914.085716205318	587.262082945756	564.961496354223	920.072332038150	499.164586307175	569.873787799575	884.973013750037	743.455163241347	371.292108473266	803.893681209814	625.184957721229	308.482908717807	891.987604534052	544.793758535471	368.608726672324	886.909369859980	458.166036606616	368.218934482091	820.468614327263	397.659083528674	363.615629266611	682.746922744113	348.456880994714	312.395399336156	671.236446647281	222.797266189754	375.058445689448	898.266523052530	408.991850772167	578.947530897875	833.914622917278	301.583566830853	640.959544840444	881.543452970627	209.573098222690	579.108662192514	754.696261722422	41.896448934892	551.504030185858	925.440682805570	99.235374755580	582.836935568201	839.919739958842	36.115634529494	624.555941602783	1046.429771629759	51.008486213073	607.641314162416	482.028437595779	148.263996777324	411.510140051653	544.464338976405	104.759675215360	334.774126125843	646.789209563811	123.375191226421	357.044132753959	734.311008728177	32.194776442273	336.983869558693	791.050676725514	1083.998502728244	190.492474242928	999.873836463689	926.836646239081	201.478737399063	731.445638214993	1103.922858550481	786.607165210256	857.597080612920	875.966237909684	800.975113774233	
39	34.641285714286	835.982894045679	959.602327033299	345.006941731432	621.778148183556	1000.340411603966	503.299392065796	786.806336698750	1434.588636306521	323.703585693205	887.901240875471	1367.430252680734	486.642733609804	796.791096481487	1437.924318452344	659.092840939166	782.166508127793	1494.335235549179	475.906181578536	852.826014515530	943.039622266516	618.500046726492	906.507538388600	746.606240332984	589.160995094860	832.146490546222	634.549631670184	648.373820968453	910.756241992487	586.641611278983	565.935586744161	915.978929027146	498.589666737092	570.469340501104	888.539329257564	746.535634377844	373.345092668583	812.484177622168	626.271712238636	309.431809710124	903.035116215795	548.119279424269	369.785706774093	899.641779530034	460.368257751510	368.850083012933	831.704975353167	399.649994350117	364.159319601315	692.438934620670	354.833496511591	312.810907732422	677.092545413960	229.332958930745	374.983009072532	893.806161783634	408.472303029130	579.514321892229	829.187248635432	301.196509590898	641.420425037486	875.953336025773	209.150761946498	579.198815889674	748.168949047326	41.892745844681	551.548980256622	918.979432061986	99.009866776264	582.792838139227	833.371659058625	36.065905335958	624.622477219645	1039.954684766623	50.664542492739	607.656262749278	485.148589994552	163.387833721304	411.000656714114	545.540620599364	116.239151066569	334.522379107069	648.976282174906	129.288387340291	356.949697361737	731.045331666221	31.692914299947	337.408840811020	783.427009976901	1084.310877185682	192.755078608743	987.736441222822	920.921704301960	201.495579648505	739.267828037237	1102.777978353951	790.825147893550	873.179299997526	879.228185559667	803.511719105872	
